# xmcd
#
# Track frame offsets: 
#        150
#        20192
#        40451
#        59357
#
# Disc length: 1086 seconds
#
# Revision: 0
# Processed by: cddbd v1.5.2PL0 Copyright (c) Steve Scherf et al.
# Submitted via: ExactAudioCopy v0.99pb4
#
DISCID=35043c04
DTITLE=Mary Jeras - Mary Jeras
DYEAR=2010
DGENRE=R&B
TTITLE0=All This Love
TTITLE1=Human Touch
TTITLE2=Underwater
TTITLE3=All This Love (Acoustic)
EXTD=
EXTT0=
EXTT1=
EXTT2=
EXTT3=
PLAYORDER=
